<?xml version="1.0" encoding="utf-8"?>
<!-- Generator: Adobe Illustrator 24.3.0, SVG Export Plug-In . SVG Version: 6.00 Build 0)  -->
<svg version="1.1" xmlns="http://www.w3.org/2000/svg" xmlns:xlink="http://www.w3.org/1999/xlink" x="0px" y="0px"
	 viewBox="0 0 1920 1080" style="enable-background:new 0 0 1920 1080;" xml:space="preserve">
<style type="text/css">
	.st0{fill:url(#base_2_);}
	.st1{fill:none;stroke:#000000;stroke-width:25;stroke-miterlimit:10;}
	.st2{fill:none;stroke:#000000;stroke-width:28;stroke-miterlimit:10;}
</style>
<g id="base">
	<radialGradient id="base_2_" cx="621.0676" cy="539.4037" r="388.5882" gradientUnits="userSpaceOnUse">
		<stop  offset="0" style="stop-color:#666666"/>
		<stop  offset="0.1633" style="stop-color:#5F5F5F"/>
		<stop  offset="0.4061" style="stop-color:#4B4B4B"/>
		<stop  offset="0.6985" style="stop-color:#2A2A2A"/>
		<stop  offset="1" style="stop-color:#000000"/>
	</radialGradient>
	<path id="base_1_" class="st0" d="M331.05,344.22c-21.19,41.68-47.2,85.27-65.01,88.27c-17.46,2.94-22.92-29.49,12.84-130.42
		c29.08-81.85,33.09-103.78,30.57-116.55c-21.94-8.4-95.62,82.8-90.94,110.6c0.96,5.7,5.84,8.54,12.25,7.46
		c11.76-1.98,28.61-15.08,31.44-26.55c0.83-3.8,4.52,0.71,3.69,4.51c-2.54,11.05-17.54,24.21-31.08,26.49
		c-7.84,1.32-17.41-1.1-19.15-11.43c-5.04-29.93,60.93-110.3,92.29-115.59c8.91-1.5,15.57,5.44,17.01,13.99
		c2.82,16.75-4.01,47.95-28.32,112.51c-20.22,53.97-25.38,92.95-22.02,112.91c14.78-5.79,38.95-47.24,60.67-90.11
		c16.19-51.83,36.83-103.31,66.23-141.98c6.87-9.22,10.1,3.43,6.67,9.14c-36.72,64.82-57.31,147.07-75.78,215.78
		c-0.89,3.45-2.48,9.21-3.9,13.85c31.9-34.69,65.4-70.75,94.16-97.95c2.91-2.32,0.36,4.33-2.13,6.95
		c-32.32,32.19-64.82,65.52-93.93,97.17c-31.3,107.88-66.59,170.25-103.33,187.07c-15.02,6.56-24.31-7.26-14.8-35.62
		c8.81-26.03,47.51-76.9,94.23-130.2C310.92,420.53,319.65,383.15,331.05,344.22z M210.28,586.63c-7.08,25.38,0,34.81,9.91,30.58
		c39.6-17.3,66.06-99.44,80.88-157.27C252.81,514.97,217.31,563.1,210.28,586.63z M482.38,300.77c5.14-12.96,16-22.48,25.49-29.21
		c1.96-1.43,2.86,3.92,1.79,6.3c-7.52,16.29-17.15,46.13-25.58,80.9c-6.43,27.1-9.01,46.59,5.6,44.13
		c12.12-2.04,41.89-27.58,79.37-98.75c1.42-2.44,3.39,2.73,1.44,6.36c-32.98,60.89-66.01,95.4-89.58,105.6
		c-23.51,10.56-34.12-11.11-16.27-63.95c-21.26,36.93-38.75,57.1-54.13,61.52c-7.36,1.97-15.51-2.88-11.15-20.48
		c4.9-18.78,12.23-38.34,23.59-66.63c5.91-14.92,22.45-34.2,28.57-37.06c2.02-1.07,6.77,1.06,4.11,7
		c-26.63,59.45-41.47,99.7-35.76,103.13c5.65,3.08,30.36-30.77,46.83-56.99L482.38,300.77z M551.21,263.52
		c-2.14,0.36,1.77-4.69,3.91-5.05c12.47-2.1,21.32-3.96,33.08-5.94c5.15-10.76,10.83-20.51,17.05-31.45
		c4.86-8.15,13.58-12.92,18.51-14.11c5.58-1.67,2.57,6.53,0.44,11.29c-5.21,10.4-10.42,20.81-15.21,31.51
		c14.96-2.52,27.44-4.62,43.59-6.61c1.78-0.3-0.88,5.64-2.31,5.89c-15.92,1.22-27.44,2.42-43.77,5.54
		c-24.44,52.85-45.09,104.34-23.09,113.09c14.15,5.68,42.57-10.47,94.19-82.56c1.48-2.08,3.21,1.66,0.84,4.99
		c-103.11,144.89-133.73,98.02-127.32,57.73c3.17-20.32,18.08-55.81,35.01-90.18L551.21,263.52z M672.18,348.68
		c0.72,4.28,4.12,9.2,9.46,8.3c12.12-2.04,46.6-51.82,46.06-92.04c-0.49-7.25-4.89-11.64-12.26-9.66c-7.3,2.33-12.76,4.71-15.07,8.4
		c-1.19,1.67-9.62,1.62-7.79-2.72c3.14-7.49,17.14-15.71,23.14-17.09c44.54-9.7-6.49,124.59-44.98,131.07
		c-11.4,1.92-19.79-2.16-21.53-14.7c-4.15-31.18,15.26-72.56,36.43-92.62c2.85-2.68,8.49-1.8,6.54,1.83
		C685.02,281.29,668.63,318.86,672.18,348.68z M435.13,693.5c-27.3,116.36-96.46,212.66-142.63,203.95
		c-22.7-4.24-26.03-71.83,1.9-134.44c3.67-8.68,8.47-17.19,13.26-25.69c-1.67-1.19-3.69-4.51-4.77-8.73
		c-8.93-44.3,62.04-123.32,105.87-130.7C443.33,592.08,449.4,632.46,435.13,693.5z M410.74,603.07
		c-48.93,9.71-90.22,80.06-99.93,128.97c17.42-27.12,39.83-50.68,59.96-57.37c3.8-1.37,11.29,1.76,8.2,3.02
		c-18.76,8.29-45.53,53.84-60.97,90.52c-23.84,56.42-22.15,105.61-7.23,111.52c22.83,9.35,83.14-52.48,118.08-182.23
		C441.77,650.24,439.83,597.43,410.74,603.07z M447.6,835.04c-8.41,15.34-10.23,24.08-17.89,28.66c-6.35,3.64-14.25,2.4-11.42-6.87
		c26.75-91.35,91.65-245.57,149.49-326.4c10.07-14.16,15.32-2.58,15.29,12.45c-0.01,28.22-40.37,114.9-111.59,222.91
		c-5.44,15.57-14.37,36.5-19.63,53.14c27.48-47.87,56.47-80.24,62.88-85.71c9.25-8.16,20.83-9.01,18.01,6.86
		c-6.18,32.92-38.53,112.76-12.72,98.52c15.07-8.4,49.29-40.19,77.25-87.4c2.02-3.27,3.15,1.3-0.04,8.43
		c-38.69,59.65-67.64,81.39-85.98,89.97c-18.34,8.59-28.39,1.12-25.93-16.89c4.34-30.78,23.53-64.79,23.97-83.92
		C493.05,767.66,472.36,790.56,447.6,835.04z M476.85,747.67c59.38-84.76,115.08-197.84,99.25-213.5
		C572.95,532.86,524.46,621.29,476.85,747.67z M584.94,836.83c-13.13,2.58-25.68-11.06-14.39-41.92
		c14.84-40.24,47.22-72.08,69.31-75.8c4.63-0.78,13.54-2.28,15.58,7.64c2.84-4.88,11.79-14.81,19.09-19.34
		c2.31-1.49,6.06,1.18,5.35,3.5c-13.42,35.61-34.37,83.11-33.98,102.83c-0.1,10.28,4.89,13.83,12.61,11.8
		c13.3-3.71,44.45-27.64,90.12-100.2c0.83-1.61,3.69,2.31,1.38,6c-43.97,65.3-74.57,94.65-92.5,101.33
		c-24.46,9.25-37.26-8.01-29.35-37.2C612.53,820.08,597.35,834.37,584.94,836.83z M641.12,724.39
		c-19.95,3.36-49.75,54.92-52.3,89.79c-0.53,5.59,4.29,10.27,10.94,6.22c11.93-7.51,28.4-29.34,38.58-53.77
		c5.62-14.5,11.12-27.52,13.55-32.7C650.92,723.84,646.82,723.43,641.12,724.39z M983.82,692.31
		c-37.61,66.07-68.39,94.34-93.33,98.54c-35.63,6,7.17-74.87,4.89-88.4c-14.77,10.18-45.89,51.7-58.5,74.71
		c-4.84,16.94-10.11,26.99-20.44,33.12c-2.67,1.55-9.87-4.2-8.92-7.29c8.15-29.95,17.07-57.48,26.35-82.86
		c-20.7,20.71-44.43,36.43-67.57,51.33c-2.78,40.05-47.35,66.97-58.77,55.71c-13.21-13.17,5.89-25.91,36.34-45.33
		c0.99-11.53-0.4-26.31-6.01-42.23c-14.39-39.72,29.78-60.35,32.3-45.38c1.62,9.62-5.14,17.36-16.93,32.17
		c4.54,11.69,10.91,21.25,12.95,33.36c0.42,2.49,0.48,5.05,0.55,7.6c23.5-14.95,47.53-31.09,69.71-53.88
		c56.94-155.8,123.35-227.09,137.51-214.82c14.52,12.21-42.39,115.98-112.77,196.36c-8.04,21.87-14.83,44.64-20.26,66.81
		c19.72-33,59.27-76.68,71.62-81.69c6.17-2.51,11.94,1.29,8.28,14.36c-3.78,12.36-39.76,90.25-13.87,82.95
		c14.73-3.95,35.9-24,77.18-92.15C985.58,683.21,985.24,689.87,983.82,692.31z M743.51,786.29c-28.42,18.35-45.1,30.32-31.77,39.8
		C717.56,830.24,739.46,816.66,743.51,786.29z M751.65,721.53c8.96-7.74,16.12-19.57,15.04-25.99c-1.14-6.77-12.18,1.68-16.55,10.48
		C748.18,709.65,749.86,717.43,751.65,721.53z M866,682.48c70.97-81.21,112.04-170.22,104.24-179.53
		C962.86,493.93,904.91,580.64,866,682.48z M1017.65,760.63c-37.26,29-59.97,15.97-55.1-18.2c2-14.26,12.4-41.66,24.42-66.04
		c4.91-9.99,16.37-15.95,22.18-18.4c2.73-1.19,6.65,0.35,5.23,2.78c-12.97,23.07-29.54,59.58-32.12,79.07
		c-2.28,19.07-0.1,42.89,32.65,17.59C1017.47,755.16,1018.31,760.15,1017.65,760.63z M1013.1,605.29
		c0.88-7.84,8.17-18.97,16.31-16.31c14.03,4.97,7.94,25.41-4.23,29.3C1017.88,620.61,1012.05,614.26,1013.1,605.29z"/>
</g>
</svg>
